<?xml version="1.0" encoding="utf-8"?>
<!-- Uploaded to: SVG Repo, www.svgrepo.com, Generator: SVG Repo Mixer Tools -->
<svg fill="#000000" width="800px" height="800px" viewBox="0 0 32 32" version="1.1" xmlns="http://www.w3.org/2000/svg">
<title>death-skull</title>
<path d="M25.663 22.033c1.075 0.554 1.717 1.201 1.717 1.9 0 2.005-5.136 3.653-11.434 3.653s-11.398-1.648-11.398-3.653c0-0.702 0.631-1.344 1.717-1.9h-0c-3.129 0.85-5.151 2.11-5.151 3.507 0 2.559 6.647 4.639 14.832 4.639s14.832-2.080 14.832-4.639c0-1.392-2.004-2.657-5.114-3.507zM8.671 20.313c0.358 0.402 0.791 0.761 1.281 1.074l-1.072 1.767c2.947 2.411 9.45 2.73 13.21-0.030l-1.105-1.417c0.701-0.382 1.329-0.857 1.848-1.43-1.91-1.784-1.158-3.707 3.802-6.033v-0.001c0-6.117-2.889-13.575-10.751-13.575-7.796 0-10.751 7.115-10.751 13.575 4.678 2.194 5.151 4.556 3.538 6.069zM15.66 15.736h0c0 0-0 0-0 0 0.755 1.361 1.354 2.723 1.652 4.084-0.812 0.605-2.266 0.693-3.303 0 0.402-1.361 0.885-2.723 1.652-4.084 0-0-0-0-0-0zM21.539 9.956c1.978 0.363 2.267 1.869 1.965 3.777l-0 0c-1.939 1.313-4.013 2.444-6.471 1.188l-0.069-2.096c2.665 0.111 4.096-0.973 4.576-2.869zM20.253 9.125c-1.614 2.345-7.732 2.348-9.095-0.013 2.882 0.678 5.926 0.668 9.095 0.013zM7.926 13.733c-0.303-1.907-0.013-3.414 1.965-3.777 0.48 1.896 1.911 2.98 4.576 2.869l-0.069 2.096c-2.458 1.256-4.532 0.125-6.471-1.188l-0-0z"></path>
</svg>